<svg width="30" height="17" viewBox="0 0 30 17" fill="none" xmlns="http://www.w3.org/2000/svg">
<path d="M6.36577 5.90834H3.0914L3.50909 4.95198H5.94747L4.15165 0.808601L1.2272 7.53053H0L2.9608 0.718826C3.06553 0.39152 3.33167 0 3.68652 0H4.61616C5.00797 0 5.20634 0.401495 5.33695 0.718826C7.31081 5.2637 6.32388 2.99126 8.29775 7.53053H7.07055L6.36577 5.90834Z" fill="black"/>
<path d="M9.07477 2.16645C9.07477 0.971943 10.0358 0 11.2107 0H12.8611C14.8713 0 16.3073 1.68079 16.3073 3.67268V3.85785C16.3073 5.85535 14.8713 7.53053 12.8611 7.53053H9.07539V2.16645H9.07477ZM10.1979 6.54736H12.6159C14.1511 6.54736 15.1485 5.26308 15.1485 3.76246C15.1485 2.26184 14.1511 0.983164 12.6159 0.983164H10.1979V6.54736Z" fill="black"/>
<path d="M0 11.4958C0 10.3013 0.961058 9.32932 2.13589 9.32932H3.78632C5.79653 9.32932 7.23257 11.0101 7.23257 13.002V13.1872C7.23257 15.1847 5.79653 16.8598 3.78632 16.8598H0.000616664V11.4958H0ZM1.12308 15.8767H3.54113C5.07636 15.8767 6.07376 14.5924 6.07376 13.0918C6.07376 11.5912 5.07636 10.3125 3.54113 10.3125H1.12308V15.8767Z" fill="black"/>
<path d="M14.7702 10.3125H12.0337C10.5299 10.3125 9.29711 11.565 9.29711 13.0918C9.29711 14.6186 10.5292 15.8767 12.0337 15.8767H15.0049L14.7702 16.8598H11.7885C9.7992 16.8598 8.16972 15.2059 8.16972 13.1872V13.002C8.16972 10.9833 9.7992 9.32932 11.7885 9.32932H15.0049L14.7702 10.3125ZM14.5299 13.5887H10.5717L10.8015 12.6005H14.5299V13.5887Z" fill="black"/>
<path d="M16.1863 15.8767H20.3792C21.0322 15.8767 21.5645 15.3324 21.5645 14.6716C21.5645 14.0107 21.0267 13.4933 20.3792 13.4933H18.061C16.9385 13.4933 16.0242 12.5313 16.0242 11.3954C16.0242 10.2595 16.9379 9.32932 18.061 9.32932H22.3531V10.3125H18.2593C17.6482 10.3125 17.1473 10.82 17.1473 11.4434C17.1473 12.0668 17.6537 12.5475 18.2593 12.5475H20.5831C21.7475 12.5475 22.6925 13.5413 22.6925 14.7196C22.6925 15.8979 21.7419 16.8598 20.5831 16.8598H15.9516L16.1863 15.8767Z" fill="black"/>
<path d="M27.5247 12.2414C27.1433 12.6959 27.0756 12.7171 26.7466 12.9334C27.2998 13.1186 27.415 13.219 27.7859 13.747L29.9945 16.8592H28.5898L26.1145 13.3717H24.4437V16.8592H23.3213V9.32932H24.4437V12.4945H25.9112L28.6003 9.32932H30L27.5247 12.2414Z" fill="black"/>
</svg>
