<svg width="15" height="15" viewBox="0 0 15 15" fill="none" xmlns="http://www.w3.org/2000/svg">
<path fill-rule="evenodd" clip-rule="evenodd" d="M6.48841 11.5627C9.29085 11.5627 11.5627 9.29085 11.5627 6.48841C11.5627 3.68597 9.29085 1.41414 6.48841 1.41414C3.68597 1.41414 1.41414 3.68597 1.41414 6.48841C1.41414 9.29085 3.68597 11.5627 6.48841 11.5627ZM6.48841 12.9768C10.0719 12.9768 12.9768 10.0719 12.9768 6.48841C12.9768 2.90496 10.0719 0 6.48841 0C2.90496 0 0 2.90496 0 6.48841C0 10.0719 2.90496 12.9768 6.48841 12.9768Z" fill="black"/>
<path fill-rule="evenodd" clip-rule="evenodd" d="M14.0001 15L10.314 11.314L11.314 10.314L15 14.0001L14.0001 15Z" fill="black"/>
</svg>
