<svg width="17" height="12" viewBox="0 0 17 12" fill="none" xmlns="http://www.w3.org/2000/svg">
<path d="M3.16667 11.5C3.22325 11.5 3.28157 11.5 3.3417 11.5H8.5M3.16667 11.5C2.2882 11.4993 1.82741 11.4879 1.47049 11.3004C1.13598 11.1246 0.864208 10.8434 0.693766 10.4984C0.5 10.1063 0.5 9.59361 0.5 8.56685V3.43351C0.5 2.40675 0.5 1.89299 0.693766 1.50081C0.864208 1.15585 1.13598 0.875589 1.47049 0.699821C1.85077 0.5 2.34897 0.5 3.34462 0.5H13.6557C14.6514 0.5 15.1485 0.5 15.5288 0.699821C15.8633 0.875589 16.136 1.15585 16.3064 1.50081C16.5 1.8926 16.5 2.40574 16.5 3.4305V8.5695C16.5 9.59425 16.5 10.1067 16.3064 10.4984C16.136 10.8434 15.8633 11.1246 15.5288 11.3004C15.1489 11.5 14.652 11.5 13.6583 11.5H8.5M3.16667 11.5C3.1667 10.4875 4.3606 9.66667 5.83333 9.66667C7.30609 9.66667 8.5 10.4875 8.5 11.5M3.16667 11.5V11.5ZM13.8333 7.83333H10.2778M13.8333 5.08333H11.1667M5.83333 6.91667C4.85149 6.91667 4.05556 6.09586 4.05556 5.08333C4.05556 4.07081 4.85149 3.25 5.83333 3.25C6.81517 3.25 7.61111 4.07081 7.61111 5.08333C7.61111 6.09586 6.81517 6.91667 5.83333 6.91667Z" stroke="#8C8C8C" stroke-linecap="round" stroke-linejoin="round"/>
</svg>
