<svg width="11" height="15" viewBox="0 0 11 15" fill="none" xmlns="http://www.w3.org/2000/svg">
<path d="M10.5 7.5V11.875C10.5 13.3247 8.26142 14.5 5.5 14.5C2.73858 14.5 0.5 13.3247 0.5 11.875V7.5M10.5 7.5V3.125M10.5 7.5C10.5 8.94975 8.26142 10.125 5.5 10.125C2.73858 10.125 0.5 8.94975 0.5 7.5M10.5 3.125C10.5 1.67525 8.26142 0.5 5.5 0.5C2.73858 0.5 0.5 1.67525 0.5 3.125M10.5 3.125C10.5 4.57475 8.26142 5.75 5.5 5.75C2.73858 5.75 0.5 4.57475 0.5 3.125M0.5 7.5V3.125" stroke="#8C8C8C" stroke-linecap="round" stroke-linejoin="round"/>
</svg>
