<svg width="15" height="14" viewBox="0 0 15 14" fill="none" xmlns="http://www.w3.org/2000/svg">
<path d="M10.125 13.5H4.875M0.5 8.12684V3.2735C0.5 2.30275 0.5 1.817 0.690739 1.44622C0.858517 1.12008 1.12604 0.855103 1.45532 0.688922C1.82967 0.5 2.32008 0.5 3.30017 0.5H11.7002C12.6803 0.5 13.1696 0.5 13.544 0.688922C13.8733 0.855103 14.1417 1.12008 14.3094 1.44622C14.5 1.81664 14.5 2.30179 14.5 3.27066V8.12934C14.5 9.0982 14.5 9.58266 14.3094 9.95308C14.1417 10.2792 13.8733 10.5451 13.544 10.7113C13.17 10.9 12.6809 10.9 11.7027 10.9H3.2973C2.31912 10.9 1.8293 10.9 1.45532 10.7113C1.12604 10.5451 0.858517 10.2792 0.690739 9.95308C0.5 9.58229 0.5 9.09759 0.5 8.12684Z" stroke="#8C8C8C" stroke-linecap="round" stroke-linejoin="round"/>
</svg>
