<svg width="14" height="14" viewBox="0 0 14 14" fill="none" xmlns="http://www.w3.org/2000/svg">
<path d="M7 9.4375L9.4375 7M9.4375 7L7 4.5625M9.4375 7H0.5M4.5625 3.13948V3.10016C4.5625 2.19007 4.5625 1.73469 4.73961 1.38708C4.89541 1.08132 5.14382 0.832909 5.44958 0.677114C5.79719 0.5 6.25257 0.5 7.16266 0.5H10.9002C11.8102 0.5 12.2647 0.5 12.6123 0.677114C12.918 0.832909 13.1673 1.08132 13.3231 1.38708C13.5 1.73435 13.5 2.18918 13.5 3.09749V10.9029C13.5 11.8112 13.5 12.2654 13.3231 12.6127C13.1673 12.9184 12.918 13.1673 12.6123 13.3231C12.265 13.5 11.8108 13.5 10.9025 13.5H7.15999C6.25168 13.5 5.79685 13.5 5.44958 13.3231C5.14382 13.1673 4.89541 12.9182 4.73961 12.6124C4.5625 12.2648 4.5625 11.8101 4.5625 10.9V10.8594" stroke="#8C8C8C" stroke-linecap="round" stroke-linejoin="round"/>
</svg>
