<svg width="12" height="13" viewBox="0 0 12 13" fill="none" xmlns="http://www.w3.org/2000/svg">
<path d="M7.01651 12.1196L10.4842 10.1677C10.8544 9.95933 11.0391 9.85512 11.1737 9.70936C11.2928 9.5804 11.3829 9.4285 11.4379 9.26345C11.4999 9.07736 11.4999 8.8694 11.4999 8.45461V4.54509C11.4999 4.1303 11.4999 3.92236 11.4379 3.73627C11.3829 3.57122 11.2928 3.41919 11.1737 3.29023C11.0397 3.1451 10.8554 3.04136 10.4884 2.83479L7.01589 0.880173C6.64571 0.671805 6.46098 0.567832 6.26421 0.527054C6.0901 0.490973 5.91009 0.490973 5.73598 0.527054C5.5392 0.567832 5.35386 0.671805 4.98368 0.880173L1.51531 2.83245C1.14556 3.04058 0.960832 3.14456 0.826298 3.29023C0.707193 3.41919 0.617245 3.57122 0.56224 3.73627C0.500073 3.9228 0.500073 4.13128 0.500073 4.54802V8.45185C0.500073 8.86858 0.500073 9.07692 0.56224 9.26345C0.617245 9.4285 0.707193 9.5804 0.826298 9.70936C0.96091 9.85512 1.14578 9.95933 1.51596 10.1677L4.98368 12.1196C5.35385 12.328 5.5392 12.432 5.73598 12.4728C5.91009 12.5089 6.0901 12.5089 6.26421 12.4728C6.46098 12.432 6.64633 12.328 7.01651 12.1196Z" stroke="#8C8C8C" stroke-linecap="round" stroke-linejoin="round"/>
<path d="M4.09475 6.49985C4.09475 7.52572 4.94776 8.35735 6 8.35735C7.05224 8.35735 7.90525 7.52572 7.90525 6.49985C7.90525 5.47398 7.05224 4.64234 6 4.64234C4.94776 4.64234 4.09475 5.47398 4.09475 6.49985Z" stroke="#8C8C8C" stroke-linecap="round" stroke-linejoin="round"/>
</svg>
