<svg width="18" height="17" viewBox="0 0 18 17" fill="none" xmlns="http://www.w3.org/2000/svg">
<path d="M7.65701 11.8881L4.18478 8.42817C3.8773 8.12179 3.8773 7.62495 4.18478 7.31856L4.51002 6.99447C4.8175 6.68808 5.31611 6.68808 5.62359 6.99447L8.21379 9.57548L16.1079 1.70967C16.4154 1.40328 16.914 1.40328 17.2215 1.70967L17.5467 2.03376C17.8542 2.34014 17.8542 2.83699 17.5467 3.14337L8.77086 11.8881C8.46339 12.1945 7.96477 12.1945 7.6573 11.8881H7.65701Z" fill="#D2D2D2"/>
<path d="M14.8139 6.85899C14.9498 7.37468 15.0234 7.91521 15.0257 8.47202C15.0409 12.0267 12.0974 14.9727 8.52999 14.9727C4.96262 14.9727 2.02683 12.0616 2.03428 8.48601C2.04173 4.93187 4.95374 2.03248 8.52053 2.02734C10.2046 2.02506 11.7417 2.66467 12.8986 3.71375C13.0244 3.82797 13.2181 3.82426 13.3384 3.70404L14.3299 2.71607C14.4575 2.589 14.454 2.38142 14.3216 2.2592C12.741 0.799802 10.6975 0 8.53027 0C6.26875 0 4.09635 0.896886 2.49736 2.49049C0.886899 4.09581 0 6.22994 0 8.5C0 10.7701 0.887185 12.905 2.4985 14.5104C4.10954 16.1157 6.25185 17 8.53027 17C10.8087 17 12.951 16.116 14.562 14.5104C16.1731 12.905 17.0605 10.7703 17.0605 8.5C17.0605 7.47833 16.8806 6.48436 16.5359 5.5535C16.4559 5.33706 16.1765 5.27795 16.0129 5.44099L14.8965 6.55346C14.8162 6.63341 14.7853 6.74963 14.8139 6.85899Z" fill="#D2D2D2"/>
</svg>
