<svg width="14" height="17" viewBox="0 0 14 17" fill="none" xmlns="http://www.w3.org/2000/svg">
<path fill-rule="evenodd" clip-rule="evenodd" d="M6.5606 0.0727196C6.25465 0.180975 5.97352 0.436305 5.83579 0.73107C5.73774 0.940811 5.71416 1.07681 5.71375 1.43434L5.71324 1.87757L5.2886 2.01598C3.37693 2.63905 2.09074 4.29944 1.80152 6.51756C1.77496 6.72156 1.75247 7.98488 1.7516 9.32491L1.75 11.7613L0.875 12.632L0 13.5027V13.9519V14.4012H7H14V13.9519V13.5027L13.125 12.632L12.25 11.7613V9.34922C12.25 6.86586 12.2204 6.35167 12.039 5.68383C11.5466 3.87083 10.3885 2.57546 8.7797 2.03823L8.36397 1.89941L8.3264 1.45711C8.30396 1.19312 8.24394 0.910914 8.17754 0.757172C7.91854 0.157385 7.19137 -0.150406 6.5606 0.0727196ZM5.26796 15.5053C5.34491 16.0647 5.77762 16.6304 6.31796 16.8779C6.69607 17.0511 7.34043 17.0384 7.72517 16.8501C8.26427 16.5864 8.65473 16.0671 8.73106 15.5124L8.764 15.273H7H5.236L5.26796 15.5053Z" fill="#D2D2D2"/>
</svg>
