<svg width="17" height="19" viewBox="0 0 17 19" fill="none" xmlns="http://www.w3.org/2000/svg">
<path d="M0.981364 12.5274C0.906464 12.2616 0.630283 12.1069 0.364497 12.1818C0.0987103 12.2567 -0.0560339 12.5329 0.018866 12.7986L0.500115 12.663L0.981364 12.5274ZM3.45818 16.8724L3.16349 17.2763V17.2763L3.45818 16.8724ZM13.5418 16.8724L13.2471 16.4685V16.4685L13.5418 16.8724ZM16.9811 12.7986C17.056 12.5329 16.9013 12.2567 16.6355 12.1818C16.3697 12.1069 16.0935 12.2616 16.0186 12.5274L16.4999 12.663L16.9811 12.7986ZM8.5 10.6248L8.19729 11.0228L8.5 11.2531L8.80271 11.0228L8.5 10.6248ZM8.99999 0.499993C8.99999 0.223854 8.77614 2.98019e-08 8.5 0C8.22386 0 8.00001 0.223854 8.00001 0.499993L8.5 0.499993L8.99999 0.499993ZM0.500115 12.663L0.018866 12.7986C0.522062 14.5843 1.62944 16.1571 3.16349 17.2763L3.45818 16.8724L3.75288 16.4685C2.39408 15.4771 1.42191 14.0907 0.981364 12.5274L0.500115 12.663ZM3.45818 16.8724L3.16349 17.2763C4.69714 18.3953 6.57298 18.9997 8.5 18.9997V18.4997V17.9997C6.78068 17.9997 5.11206 17.4602 3.75288 16.4685L3.45818 16.8724ZM8.5 18.4997V18.9997C10.427 18.9997 12.3029 18.3953 13.8365 17.2763L13.5418 16.8724L13.2471 16.4685C11.8879 17.4602 10.2193 17.9997 8.5 17.9997V18.4997ZM13.5418 16.8724L13.8365 17.2763C15.3706 16.1571 16.4779 14.5843 16.9811 12.7986L16.4999 12.663L16.0186 12.5274C15.5781 14.0907 14.6059 15.4771 13.2471 16.4685L13.5418 16.8724ZM2.58422 6.12491L2.28152 6.52286L8.19729 11.0228L8.5 10.6248L8.80271 10.2269L2.88693 5.72697L2.58422 6.12491ZM8.5 10.6248L8.80271 11.0228L14.7185 6.52286L14.4158 6.12491L14.1131 5.72697L8.19729 10.2269L8.5 10.6248ZM8.5 10.6248H8.99999L8.99999 0.499993L8.5 0.499993L8.00001 0.499993L8.00001 10.6248H8.5Z" fill="#222222"/>
</svg>
