<svg width="14" height="16" viewBox="0 0 14 16" fill="none" xmlns="http://www.w3.org/2000/svg">
<path d="M4.74488 7.59544L6.28509 9.22914C6.36757 9.31662 6.50129 9.31662 6.58376 9.22914L9.39114 6.25137M12.5655 2.04178L7.50981 0.611764C7.08196 0.490743 6.63167 0.490743 6.20381 0.611764L1.14811 2.04178C0.778304 2.14638 0.520998 2.50162 0.520998 2.90757V8.30233C0.520998 10.0999 1.36798 11.7786 2.77807 12.7757L6.38822 15.3285C6.67198 15.5292 7.04165 15.5292 7.32541 15.3285L10.9356 12.7757C12.3457 11.7786 13.1926 10.0999 13.1926 8.30233V2.90757C13.1926 2.50162 12.9353 2.14638 12.5655 2.04178Z" stroke="#153ECE" stroke-linecap="round"/>
</svg>
