<svg width="643" height="279" viewBox="0 0 643 279" fill="none" xmlns="http://www.w3.org/2000/svg">
<path d="M0 32.5008C43.9998 32.5008 40.9999 99.0006 87.4997 99.0006C134 99.0006 158.277 5.00092 211.777 5.00092C265.277 5.00092 261.999 110.501 311.999 110.501C361.999 110.501 364.499 252 420.998 252C477.498 252 474.498 156.5 527.498 156.5C580.498 156.5 588.998 99.0006 637.998 99.0006" stroke="#1581CE" stroke-width="2"/>
<path d="M87.4997 99.0006C40.9998 99.0006 43.9998 32.5008 0 32.5008V279H636.498L637.998 99.0006C588.998 99.0006 580.498 156.5 527.498 156.5C474.498 156.5 477.498 252 420.998 252C364.499 252 361.999 110.501 311.999 110.501C261.999 110.501 265.277 5.00092 211.777 5.00092C158.277 5.00092 134 99.0006 87.4997 99.0006Z" fill="url(#paint0_linear_1_669)"/>
<circle cx="83.5014" cy="98.5" r="4.49998" fill="#1581CE"/>
<circle cx="207.501" cy="4.49998" r="4.49998" fill="#1581CE"/>
<circle cx="313.497" cy="112.5" r="4.49998" fill="#1581CE"/>
<circle cx="421.495" cy="251.498" r="4.49998" fill="#1581CE"/>
<circle cx="529.493" cy="156.497" r="4.49998" fill="#1581CE"/>
<circle cx="638.496" cy="100.499" r="4.49998" fill="#1581CE"/>
<defs>
<linearGradient id="paint0_linear_1_669" x1="318.999" y1="-121.999" x2="318.999" y2="265.5" gradientUnits="userSpaceOnUse">
<stop stop-color="#1581CE"/>
<stop offset="1" stop-color="#1581CE" stop-opacity="0"/>
</linearGradient>
</defs>
</svg>
