<svg width="643" height="251" viewBox="0 0 643 251" fill="none" xmlns="http://www.w3.org/2000/svg">
<path d="M0 131.001C43.9995 131.001 40.9996 4.50269 87.4991 4.50269C133.999 4.50269 155.998 190.001 209.498 190.001C262.997 190.001 261.997 131.001 311.997 131.001C361.996 131.001 364.496 190.001 420.995 190.001C477.495 190.001 481.995 71.002 527.494 71.002C572.994 71.002 637.993 4.50269 637.993 4.50269" stroke="#153ECE" stroke-width="2"/>
<path d="M87.4991 4.50269C40.9996 4.50269 43.9995 131.001 0 131.001V251H637.993V4.50269C637.993 4.50269 572.994 71.002 527.494 71.002C481.995 71.002 477.495 190.001 420.995 190.001C364.496 190.001 361.996 131.001 311.997 131.001C261.997 131.001 262.997 190.001 209.498 190.001C155.998 190.001 133.999 4.50269 87.4991 4.50269Z" fill="url(#paint0_linear_1_678)"/>
<circle cx="83.5009" cy="5.50269" r="4.49995" fill="#153ECE"/>
<circle cx="207.499" cy="189.499" r="4.49995" fill="#153ECE"/>
<circle cx="313.495" cy="131.5" r="4.49995" fill="#153ECE"/>
<circle cx="421.492" cy="190.5" r="4.49995" fill="#153ECE"/>
<circle cx="529.489" cy="69.4988" r="4.49995" fill="#153ECE"/>
<circle cx="638.491" cy="4.49995" r="4.49995" fill="#153ECE"/>
<defs>
<linearGradient id="paint0_linear_1_678" x1="318.997" y1="-78.9964" x2="318.997" y2="188.001" gradientUnits="userSpaceOnUse">
<stop stop-color="#153ECE"/>
<stop offset="1" stop-color="#153ECE" stop-opacity="0"/>
</linearGradient>
</defs>
</svg>
