<svg width="154" height="24" viewBox="0 0 154 24" fill="none" xmlns="http://www.w3.org/2000/svg">
<path d="M19.6494 18.2374H9.5423L10.8316 15.2854H18.3582L12.815 2.49593L3.78802 23.2447H0L9.13916 2.21882C9.46243 1.20851 10.2839 0 11.3793 0H14.2488C15.4582 0 16.0705 1.2393 16.4737 2.21882C22.5665 16.2476 19.5201 9.2332 25.6128 23.2447H21.8248L19.6494 18.2374Z" fill="white"/>
<path d="M28.009 6.68724C28.009 3.00012 30.9755 0 34.6019 0H39.6963C45.9013 0 50.3339 5.18814 50.3339 11.3366V11.9081C50.3339 18.0738 45.9013 23.2447 39.6963 23.2447H28.0109V6.68724H28.009ZM31.4756 20.2099H38.9394C43.6783 20.2099 46.757 16.2457 46.757 11.6137C46.757 6.98167 43.6783 3.03476 38.9394 3.03476H31.4756V20.2099Z" fill="white"/>
<path d="M61.3964 6.89365C61.3964 3.20653 64.3629 0.206411 67.9893 0.206411H73.0837C79.2887 0.206411 83.7213 5.39456 83.7213 11.543V12.1145C83.7213 18.2802 79.2887 23.4511 73.0837 23.4511H61.3983V6.89365H61.3964ZM64.863 20.4163H72.3269C77.0657 20.4163 80.1444 16.4521 80.1444 11.8201C80.1444 7.18808 77.0657 3.24117 72.3269 3.24117H64.863V20.4163Z" fill="white"/>
<path d="M106.988 3.24117H98.5408C93.899 3.24117 90.0938 7.10726 90.0938 11.8201C90.0938 16.5329 93.8971 20.4163 98.5408 20.4163H107.712L106.988 23.4511H97.784C91.6437 23.4511 86.6139 18.3457 86.6139 12.1145V11.543C86.6139 5.31181 91.6437 0.206411 97.784 0.206411H107.712L106.988 3.24117ZM106.246 13.3538H94.0283L94.7376 10.3037H106.246V13.3538Z" fill="white"/>
<path d="M111.361 20.4163H124.303C126.319 20.4163 127.962 18.7363 127.962 16.6965C127.962 14.6566 126.302 13.0594 124.303 13.0594H117.147C113.683 13.0594 110.861 10.0901 110.861 6.58383C110.861 3.07759 113.681 0.206411 117.147 0.206411H130.396V3.24117H117.76C115.873 3.24117 114.327 4.80762 114.327 6.732C114.327 8.65639 115.89 10.1401 117.76 10.1401H124.933C128.527 10.1401 131.444 13.2076 131.444 16.8447C131.444 20.4817 128.509 23.4511 124.933 23.4511H110.636L111.361 20.4163Z" fill="white"/>
<path d="M146.359 9.19522C145.182 10.5981 144.973 10.6635 143.958 11.3313C145.665 11.9028 146.021 12.2127 147.166 13.8426L153.983 23.4491H149.647L142.007 12.6841H136.849V23.4491H133.385V0.206411H136.849V9.97652H141.379L149.68 0.206411H154L146.359 9.19522Z" fill="white"/>
</svg>
